<svg width="57" height="56" viewBox="0 0 57 56" fill="none" xmlns="http://www.w3.org/2000/svg">
<path d="M26.22 17.85L36.195 1.05C40.5175 2.17 44.3536 4.22333 47.7033 7.21C51.053 10.1967 53.4869 13.7433 55.005 17.85H26.22ZM18.3113 24.85L8.55002 8.05C11.115 5.57667 14.0961 3.61667 17.4933 2.17C20.8905 0.723334 24.5594 0 28.5 0C29.1175 0 29.83 0.035467 30.6375 0.1064C31.445 0.177334 32.1812 0.258533 32.8462 0.35L18.3113 24.85ZM0.926281 35C0.641281 33.88 0.415181 32.7367 0.247981 31.57C0.0807816 30.4033 -0.00186798 29.2133 3.20225e-05 28C3.20225e-05 24.6867 0.546282 21.56 1.63878 18.62C2.73128 15.68 4.27503 12.9967 6.27002 10.57L20.6625 35H0.926281ZM20.8763 54.95C16.5538 53.83 12.7063 51.7767 9.33377 48.79C5.96128 45.8033 3.51503 42.2567 1.99503 38.15H30.7087L20.8763 54.95ZM28.5 56C27.7875 56 27.0627 55.9533 26.3255 55.86C25.5883 55.7667 24.8881 55.6733 24.225 55.58L38.6887 31.15L48.45 47.95C45.885 50.4233 42.9048 52.3833 39.5095 53.83C36.1142 55.2767 32.4444 56 28.5 56ZM50.73 45.43L36.3375 21H56.0737C56.3587 22.12 56.5848 23.2633 56.752 24.43C56.9192 25.5967 57.0019 26.7867 57 28C57 31.2667 56.4186 34.3933 55.2558 37.38C54.093 40.3667 52.5844 43.05 50.73 45.43Z" fill="black"/>
</svg>
