<svg width="57" height="57" viewBox="0 0 57 57" fill="none" xmlns="http://www.w3.org/2000/svg">
<path d="M34.2 19.95H22.8C22.0441 19.95 21.3192 20.2503 20.7847 20.7847C20.2503 21.3192 19.95 22.0441 19.95 22.8V34.2C19.95 34.9559 20.2503 35.6808 20.7847 36.2153C21.3192 36.7497 22.0441 37.05 22.8 37.05H34.2C34.9559 37.05 35.6808 36.7497 36.2153 36.2153C36.7497 35.6808 37.05 34.9559 37.05 34.2V22.8C37.05 22.0441 36.7497 21.3192 36.2153 20.7847C35.6808 20.2503 34.9559 19.95 34.2 19.95ZM31.35 31.35H25.65V25.65H31.35V31.35ZM54.15 31.35C54.9059 31.35 55.6308 31.0497 56.1653 30.5153C56.6997 29.9808 57 29.2559 57 28.5C57 27.7441 56.6997 27.0192 56.1653 26.4847C55.6308 25.9503 54.9059 25.65 54.15 25.65H48.45V19.95H54.15C54.9059 19.95 55.6308 19.6497 56.1653 19.1153C56.6997 18.5808 57 17.8559 57 17.1C57 16.3441 56.6997 15.6192 56.1653 15.0847C55.6308 14.5503 54.9059 14.25 54.15 14.25H47.937C47.5114 13.0547 46.8252 11.9691 45.928 11.072C45.0309 10.1748 43.9453 9.48856 42.75 9.063V2.85C42.75 2.09413 42.4497 1.36922 41.9153 0.834746C41.3808 0.300267 40.6559 0 39.9 0C39.1441 0 38.4192 0.300267 37.8847 0.834746C37.3503 1.36922 37.05 2.09413 37.05 2.85V8.55H31.35V2.85C31.35 2.09413 31.0497 1.36922 30.5153 0.834746C29.9808 0.300267 29.2559 0 28.5 0C27.7441 0 27.0192 0.300267 26.4847 0.834746C25.9503 1.36922 25.65 2.09413 25.65 2.85V8.55H19.95V2.85C19.95 2.09413 19.6497 1.36922 19.1153 0.834746C18.5808 0.300267 17.8559 0 17.1 0C16.3441 0 15.6192 0.300267 15.0847 0.834746C14.5503 1.36922 14.25 2.09413 14.25 2.85V9.063C13.0547 9.48856 11.9691 10.1748 11.072 11.072C10.1748 11.9691 9.48856 13.0547 9.063 14.25H2.85C2.09413 14.25 1.36922 14.5503 0.834746 15.0847C0.300267 15.6192 0 16.3441 0 17.1C0 17.8559 0.300267 18.5808 0.834746 19.1153C1.36922 19.6497 2.09413 19.95 2.85 19.95H8.55V25.65H2.85C2.09413 25.65 1.36922 25.9503 0.834746 26.4847C0.300267 27.0192 0 27.7441 0 28.5C0 29.2559 0.300267 29.9808 0.834746 30.5153C1.36922 31.0497 2.09413 31.35 2.85 31.35H8.55V37.05H2.85C2.09413 37.05 1.36922 37.3503 0.834746 37.8847C0.300267 38.4192 0 39.1441 0 39.9C0 40.6559 0.300267 41.3808 0.834746 41.9153C1.36922 42.4497 2.09413 42.75 2.85 42.75H9.063C9.48856 43.9453 10.1748 45.0309 11.072 45.928C11.9691 46.8252 13.0547 47.5114 14.25 47.937V54.15C14.25 54.9059 14.5503 55.6308 15.0847 56.1653C15.6192 56.6997 16.3441 57 17.1 57C17.8559 57 18.5808 56.6997 19.1153 56.1653C19.6497 55.6308 19.95 54.9059 19.95 54.15V48.45H25.65V54.15C25.65 54.9059 25.9503 55.6308 26.4847 56.1653C27.0192 56.6997 27.7441 57 28.5 57C29.2559 57 29.9808 56.6997 30.5153 56.1653C31.0497 55.6308 31.35 54.9059 31.35 54.15V48.45H37.05V54.15C37.05 54.9059 37.3503 55.6308 37.8847 56.1653C38.4192 56.6997 39.1441 57 39.9 57C40.6559 57 41.3808 56.6997 41.9153 56.1653C42.4497 55.6308 42.75 54.9059 42.75 54.15V47.937C43.9453 47.5114 45.0309 46.8252 45.928 45.928C46.8252 45.0309 47.5114 43.9453 47.937 42.75H54.15C54.9059 42.75 55.6308 42.4497 56.1653 41.9153C56.6997 41.3808 57 40.6559 57 39.9C57 39.1441 56.6997 38.4192 56.1653 37.8847C55.6308 37.3503 54.9059 37.05 54.15 37.05H48.45V31.35H54.15ZM42.75 39.9C42.75 40.6559 42.4497 41.3808 41.9153 41.9153C41.3808 42.4497 40.6559 42.75 39.9 42.75H17.1C16.3441 42.75 15.6192 42.4497 15.0847 41.9153C14.5503 41.3808 14.25 40.6559 14.25 39.9V17.1C14.25 16.3441 14.5503 15.6192 15.0847 15.0847C15.6192 14.5503 16.3441 14.25 17.1 14.25H39.9C40.6559 14.25 41.3808 14.5503 41.9153 15.0847C42.4497 15.6192 42.75 16.3441 42.75 17.1V39.9Z" fill="black"/>
</svg>
