<svg width="57" height="56" viewBox="0 0 57 56" fill="none" xmlns="http://www.w3.org/2000/svg">
<path d="M48.45 0C50.7176 0 52.8923 0.893306 54.4958 2.4834C56.0992 4.07349 57 6.23012 57 8.47885V36.7417C57 38.9904 56.0992 41.1471 54.4958 42.7372C52.8923 44.3273 50.7176 45.2206 48.45 45.2206H8.55C6.2824 45.2206 4.10767 44.3273 2.50424 42.7372C0.900801 41.1471 0 38.9904 0 36.7417V8.47885C0 6.23012 0.900801 4.07349 2.50424 2.4834C4.10767 0.893306 6.2824 0 8.55 0H48.45ZM48.45 5.65257H8.55C7.79413 5.65257 7.06922 5.95034 6.53475 6.48037C6.00027 7.0104 5.7 7.72928 5.7 8.47885V36.7417C5.7 37.4913 6.00027 38.2102 6.53475 38.7402C7.06922 39.2702 7.79413 39.568 8.55 39.568H48.45C49.2059 39.568 49.9308 39.2702 50.4653 38.7402C50.9997 38.2102 51.3 37.4913 51.3 36.7417V8.47885C51.3 7.72928 50.9997 7.0104 50.4653 6.48037C49.9308 5.95034 49.2059 5.65257 48.45 5.65257ZM24.8149 12.1332C25.3492 12.6632 25.6494 13.382 25.6494 14.1314C25.6494 14.8809 25.3492 15.5996 24.8149 16.1296L16.2649 24.6085C15.7274 25.1233 15.0075 25.4082 14.2603 25.4017C13.513 25.3953 12.7982 25.098 12.2698 24.574C11.7414 24.05 11.4416 23.3411 11.4351 22.6001C11.4286 21.8591 11.7159 21.1451 12.2351 20.6121L20.785 12.1332C21.3195 11.6034 22.0443 11.3057 22.8 11.3057C23.5557 11.3057 24.2805 11.6034 24.8149 12.1332ZM12.2351 9.30696C12.7479 8.80007 13.4361 8.50578 14.1599 8.48386C14.8836 8.46195 15.5887 8.71404 16.1318 9.18895C16.6749 9.66387 17.0154 10.326 17.084 11.0408C17.1527 11.7556 16.9444 12.4696 16.5015 13.0377L16.2649 13.3033L13.4149 16.1296C12.9021 16.6365 12.2139 16.9308 11.4901 16.9527C10.7663 16.9746 10.0613 16.7225 9.5182 16.2476C8.97509 15.7727 8.63463 15.1106 8.56596 14.3958C8.4973 13.6809 8.70558 12.967 9.1485 12.3989L9.38505 12.1332L12.2351 9.30696Z" fill="black"/>
</svg>
