<svg width="44" height="48" viewBox="0 0 44 48" fill="none" xmlns="http://www.w3.org/2000/svg">
<path d="M14.375 27.375L30.125 36.375M30.125 11.625L14.375 20.625M42.5 8.25C42.5 11.9779 39.4779 15 35.75 15C32.0221 15 29 11.9779 29 8.25C29 4.52208 32.0221 1.5 35.75 1.5C39.4779 1.5 42.5 4.52208 42.5 8.25ZM15.5 24C15.5 27.7279 12.4779 30.75 8.75 30.75C5.02208 30.75 2 27.7279 2 24C2 20.2721 5.02208 17.25 8.75 17.25C12.4779 17.25 15.5 20.2721 15.5 24ZM42.5 39.75C42.5 43.4779 39.4779 46.5 35.75 46.5C32.0221 46.5 29 43.4779 29 39.75C29 36.0221 32.0221 33 35.75 33C39.4779 33 42.5 36.0221 42.5 39.75Z" stroke="white" stroke-width="3" stroke-linecap="round" stroke-linejoin="round"/>
</svg>
