<svg width="20" height="20" viewBox="0 0 20 20" fill="none" xmlns="http://www.w3.org/2000/svg">
<path d="M11.8335 7.24998H8.16683C7.92371 7.24998 7.69056 7.34656 7.51865 7.51847C7.34674 7.69037 7.25016 7.92353 7.25016 8.16665V11.8333C7.25016 12.0764 7.34674 12.3096 7.51865 12.4815C7.69056 12.6534 7.92371 12.75 8.16683 12.75H11.8335C12.0766 12.75 12.3098 12.6534 12.4817 12.4815C12.6536 12.3096 12.7502 12.0764 12.7502 11.8333V8.16665C12.7502 7.92353 12.6536 7.69037 12.4817 7.51847C12.3098 7.34656 12.0766 7.24998 11.8335 7.24998ZM10.9168 10.9166H9.0835V9.08331H10.9168V10.9166ZM18.2502 10.9166C18.4933 10.9166 18.7264 10.8201 18.8983 10.6482C19.0703 10.4763 19.1668 10.2431 19.1668 9.99998C19.1668 9.75686 19.0703 9.52371 18.8983 9.3518C18.7264 9.17989 18.4933 9.08331 18.2502 9.08331H16.4168V7.24998H18.2502C18.4933 7.24998 18.7264 7.1534 18.8983 6.98149C19.0703 6.80959 19.1668 6.57643 19.1668 6.33331C19.1668 6.0902 19.0703 5.85704 18.8983 5.68513C18.7264 5.51322 18.4933 5.41665 18.2502 5.41665H16.2518C16.115 5.0322 15.8942 4.68303 15.6057 4.39447C15.3171 4.10591 14.9679 3.88519 14.5835 3.74831V1.74998C14.5835 1.50686 14.4869 1.27371 14.315 1.1018C14.1431 0.92989 13.9099 0.833313 13.6668 0.833313C13.4237 0.833313 13.1906 0.92989 13.0186 1.1018C12.8467 1.27371 12.7502 1.50686 12.7502 1.74998V3.58331H10.9168V1.74998C10.9168 1.50686 10.8203 1.27371 10.6483 1.1018C10.4764 0.92989 10.2433 0.833313 10.0002 0.833313C9.75705 0.833313 9.52389 0.92989 9.35198 1.1018C9.18007 1.27371 9.0835 1.50686 9.0835 1.74998V3.58331H7.25016V1.74998C7.25016 1.50686 7.15359 1.27371 6.98168 1.1018C6.80977 0.92989 6.57661 0.833313 6.3335 0.833313C6.09038 0.833313 5.85722 0.92989 5.68532 1.1018C5.51341 1.27371 5.41683 1.50686 5.41683 1.74998V3.74831C5.03238 3.88519 4.68322 4.10591 4.39465 4.39447C4.10609 4.68303 3.88537 5.0322 3.7485 5.41665H1.75016C1.50705 5.41665 1.27389 5.51322 1.10198 5.68513C0.930073 5.85704 0.833496 6.0902 0.833496 6.33331C0.833496 6.57643 0.930073 6.80959 1.10198 6.98149C1.27389 7.1534 1.50705 7.24998 1.75016 7.24998H3.5835V9.08331H1.75016C1.50705 9.08331 1.27389 9.17989 1.10198 9.3518C0.930073 9.52371 0.833496 9.75686 0.833496 9.99998C0.833496 10.2431 0.930073 10.4763 1.10198 10.6482C1.27389 10.8201 1.50705 10.9166 1.75016 10.9166H3.5835V12.75H1.75016C1.50705 12.75 1.27389 12.8466 1.10198 13.0185C0.930073 13.1904 0.833496 13.4235 0.833496 13.6666C0.833496 13.9098 0.930073 14.1429 1.10198 14.3148C1.27389 14.4867 1.50705 14.5833 1.75016 14.5833H3.7485C3.88537 14.9678 4.10609 15.3169 4.39465 15.6055C4.68322 15.8941 5.03238 16.1148 5.41683 16.2516V18.25C5.41683 18.4931 5.51341 18.7263 5.68532 18.8982C5.85722 19.0701 6.09038 19.1666 6.3335 19.1666C6.57661 19.1666 6.80977 19.0701 6.98168 18.8982C7.15359 18.7263 7.25016 18.4931 7.25016 18.25V16.4166H9.0835V18.25C9.0835 18.4931 9.18007 18.7263 9.35198 18.8982C9.52389 19.0701 9.75705 19.1666 10.0002 19.1666C10.2433 19.1666 10.4764 19.0701 10.6483 18.8982C10.8203 18.7263 10.9168 18.4931 10.9168 18.25V16.4166H12.7502V18.25C12.7502 18.4931 12.8467 18.7263 13.0186 18.8982C13.1906 19.0701 13.4237 19.1666 13.6668 19.1666C13.9099 19.1666 14.1431 19.0701 14.315 18.8982C14.4869 18.7263 14.5835 18.4931 14.5835 18.25V16.2516C14.9679 16.1148 15.3171 15.8941 15.6057 15.6055C15.8942 15.3169 16.115 14.9678 16.2518 14.5833H18.2502C18.4933 14.5833 18.7264 14.4867 18.8983 14.3148C19.0703 14.1429 19.1668 13.9098 19.1668 13.6666C19.1668 13.4235 19.0703 13.1904 18.8983 13.0185C18.7264 12.8466 18.4933 12.75 18.2502 12.75H16.4168V10.9166H18.2502ZM14.5835 13.6666C14.5835 13.9098 14.4869 14.1429 14.315 14.3148C14.1431 14.4867 13.9099 14.5833 13.6668 14.5833H6.3335C6.09038 14.5833 5.85722 14.4867 5.68532 14.3148C5.51341 14.1429 5.41683 13.9098 5.41683 13.6666V6.33331C5.41683 6.0902 5.51341 5.85704 5.68532 5.68513C5.85722 5.51322 6.09038 5.41665 6.3335 5.41665H13.6668C13.9099 5.41665 14.1431 5.51322 14.315 5.68513C14.4869 5.85704 14.5835 6.0902 14.5835 6.33331V13.6666Z" fill="black"/>
</svg>
