<svg width="14" height="22" viewBox="0 0 14 22" fill="none" xmlns="http://www.w3.org/2000/svg">
<path d="M2.27904 11L4.52487 13.2459C4.7082 13.4292 4.7962 13.6431 4.78887 13.8875C4.78154 14.132 4.69354 14.3459 4.52487 14.5292C4.34154 14.7125 4.12398 14.8082 3.8722 14.8161C3.62043 14.824 3.40256 14.736 3.21862 14.5521L0.308203 11.6417C0.12487 11.4584 0.0332031 11.2445 0.0332031 11C0.0332031 10.7556 0.12487 10.5417 0.308203 10.3584L3.21862 7.44794C3.40195 7.2646 3.61981 7.17691 3.8722 7.18485C4.12459 7.1928 4.34215 7.28813 4.52487 7.47085C4.69293 7.65419 4.78093 7.86808 4.78887 8.11252C4.79681 8.35697 4.70881 8.57085 4.52487 8.75419L2.27904 11ZM2.41654 18.3334V19.25H11.5832V18.3334H2.41654ZM2.41654 3.66669H11.5832V2.75002H2.41654V3.66669ZM11.7207 11L9.47487 8.75419C9.29154 8.57085 9.20384 8.35697 9.21179 8.11252C9.21973 7.86808 9.30742 7.65419 9.47487 7.47085C9.6582 7.28752 9.87606 7.19219 10.1285 7.18485C10.3808 7.17752 10.5984 7.26521 10.7811 7.44794L13.6915 10.3584C13.8749 10.5417 13.9665 10.7556 13.9665 11C13.9665 11.2445 13.8749 11.4584 13.6915 11.6417L10.7811 14.5521C10.5978 14.7354 10.3802 14.8234 10.1285 14.8161C9.87668 14.8088 9.65881 14.7131 9.47487 14.5292C9.30681 14.3459 9.21912 14.132 9.21179 13.8875C9.20445 13.6431 9.29215 13.4292 9.47487 13.2459L11.7207 11ZM2.41654 21.0834C1.91237 21.0834 1.48093 20.904 1.1222 20.5453C0.763481 20.1865 0.583814 19.7548 0.583203 19.25V16.5C0.583203 16.2403 0.671203 16.0227 0.847203 15.8474C1.0232 15.672 1.24076 15.584 1.49987 15.5834C1.75898 15.5827 1.97684 15.6707 2.15345 15.8474C2.33006 16.024 2.41776 16.2415 2.41654 16.5H11.5832C11.5832 16.2403 11.6712 16.0227 11.8472 15.8474C12.0232 15.672 12.2408 15.584 12.4999 15.5834C12.759 15.5827 12.9768 15.6707 13.1535 15.8474C13.3301 16.024 13.4178 16.2415 13.4165 16.5V19.25C13.4165 19.7542 13.2372 20.1859 12.8785 20.5453C12.5197 20.9046 12.088 21.084 11.5832 21.0834H2.41654ZM2.41654 0.916687H11.5832C12.0874 0.916687 12.5191 1.09635 12.8785 1.45569C13.2378 1.81502 13.4171 2.24646 13.4165 2.75002V5.50002C13.4165 5.75974 13.3285 5.9776 13.1525 6.1536C12.9765 6.3296 12.759 6.4173 12.4999 6.41669C12.2408 6.41608 12.0232 6.32808 11.8472 6.15269C11.6712 5.9773 11.5832 5.75974 11.5832 5.50002H2.41654C2.41654 5.75974 2.32854 5.9776 2.15254 6.1536C1.97654 6.3296 1.75898 6.4173 1.49987 6.41669C1.24076 6.41608 1.0232 6.32808 0.847203 6.15269C0.671203 5.9773 0.583203 5.75974 0.583203 5.50002V2.75002C0.583203 2.24585 0.76287 1.81441 1.1222 1.45569C1.48154 1.09696 1.91298 0.917298 2.41654 0.916687Z" fill="black"/>
</svg>
