<svg width="18" height="20" viewBox="0 0 18 20" fill="none" xmlns="http://www.w3.org/2000/svg">
<path d="M15.4167 17.4167H2.58333V7.33335H15.4167M12.6667 0.916687V2.75002H5.33333V0.916687H3.5V2.75002H2.58333C1.56583 2.75002 0.75 3.56585 0.75 4.58335V17.4167C0.75 17.9029 0.943154 18.3692 1.28697 18.713C1.63079 19.0569 2.0971 19.25 2.58333 19.25H15.4167C15.9029 19.25 16.3692 19.0569 16.713 18.713C17.0568 18.3692 17.25 17.9029 17.25 17.4167V4.58335C17.25 4.09712 17.0568 3.63081 16.713 3.28699C16.3692 2.94317 15.9029 2.75002 15.4167 2.75002H14.5V0.916687M13.5833 11H9V15.5834H13.5833V11Z" fill="black"/>
</svg>
